<svg width="193" height="194" viewBox="0 0 193 194" fill="none" xmlns="http://www.w3.org/2000/svg">
<rect width="173" height="173" rx="5" fill="#294351" fill-opacity="0.1"/>
<mask id="path-2-inside-1_2_158" fill="white">
<path d="M87 129H193V189C193 191.761 190.761 194 188 194H92C89.2386 194 87 191.761 87 189V129Z"/>
</mask>
<path d="M87 129H193H87ZM194 189C194 192.314 191.314 195 188 195H92C88.6863 195 86 192.314 86 189H88C88 191.209 89.7909 193 92 193H188C190.209 193 192 191.209 192 189H194ZM92 195C88.6863 195 86 192.314 86 189V129H88V189C88 191.209 89.7909 193 92 193V195ZM194 129V189C194 192.314 191.314 195 188 195V193C190.209 193 192 191.209 192 189V129H194Z" fill="#294351" mask="url(#path-2-inside-1_2_158)"/>
<circle cx="24.5" cy="23.5" r="2.5" fill="#294351"/>
<circle cx="49.5" cy="23.5" r="2.5" fill="#294351"/>
<circle cx="74.5" cy="23.5" r="2.5" fill="#294351"/>
<circle cx="99.5" cy="23.5" r="2.5" fill="#294351"/>
<circle cx="124.5" cy="23.5" r="2.5" fill="#294351"/>
<circle cx="149.5" cy="23.5" r="2.5" fill="#294351"/>
<circle cx="24.5" cy="48.5" r="2.5" fill="#294351"/>
<circle cx="49.5" cy="48.5" r="2.5" fill="#294351"/>
<circle cx="74.5" cy="48.5" r="2.5" fill="#294351"/>
<circle cx="99.5" cy="48.5" r="2.5" fill="#294351"/>
<circle cx="124.5" cy="48.5" r="2.5" fill="#294351"/>
<circle cx="149.5" cy="48.5" r="2.5" fill="#294351"/>
<circle cx="24.5" cy="73.5" r="2.5" fill="#294351"/>
<circle cx="49.5" cy="73.5" r="2.5" fill="#294351"/>
<circle cx="74.5" cy="73.5" r="2.5" fill="#294351"/>
<circle cx="99.5" cy="73.5" r="2.5" fill="#294351"/>
<circle cx="124.5" cy="73.5" r="2.5" fill="#294351"/>
<circle cx="149.5" cy="73.5" r="2.5" fill="#294351"/>
<circle cx="24.5" cy="98.5" r="2.5" fill="#294351"/>
<circle cx="49.5" cy="98.5" r="2.5" fill="#294351"/>
<circle cx="74.5" cy="98.5" r="2.5" fill="#294351"/>
<circle cx="99.5" cy="98.5" r="2.5" fill="#294351"/>
<circle cx="124.5" cy="98.5" r="2.5" fill="#294351"/>
<circle cx="149.5" cy="98.5" r="2.5" fill="#294351"/>
<circle cx="24.5" cy="123.5" r="2.5" fill="#294351"/>
<circle cx="49.5" cy="123.5" r="2.5" fill="#294351"/>
<circle cx="74.5" cy="123.5" r="2.5" fill="#294351"/>
<circle cx="99.5" cy="123.5" r="2.5" fill="#294351"/>
<circle cx="124.5" cy="123.5" r="2.5" fill="#294351"/>
<circle cx="149.5" cy="123.5" r="2.5" fill="#294351"/>
<circle cx="24.5" cy="148.5" r="2.5" fill="#294351"/>
<circle cx="49.5" cy="148.5" r="2.5" fill="#294351"/>
<circle cx="74.5" cy="148.5" r="2.5" fill="#294351"/>
<circle cx="99.5" cy="148.5" r="2.5" fill="#294351"/>
<circle cx="124.5" cy="148.5" r="2.5" fill="#294351"/>
<circle cx="149.5" cy="148.5" r="2.5" fill="#294351"/>
</svg>
